<?xml version="1.0" encoding="utf-8"?>
<!-- Generator: Adobe Illustrator 19.1.0, SVG Export Plug-In . SVG Version: 6.00 Build 0)  -->
<svg version="1.1" id="Layer_1" xmlns="http://www.w3.org/2000/svg" xmlns:xlink="http://www.w3.org/1999/xlink" x="0px" y="0px"
	 width="1000px" height="1000px" viewBox="0 0 1000 1000" style="enable-background:new 0 0 1000 1000;" xml:space="preserve">
<path d="M803.9,240.6l-576.5-0.3L109.1,431.9l406.5,477.3L920,432.5L803.9,240.6z M855.5,405H711.1l73-117.4L855.5,405z
	 M731.7,281.8l-56.8,92.3l-98-92.2C633.5,281.4,704.8,281.9,731.7,281.8z M514.2,284.7L643.2,405H386.4L514.2,284.7z M451.7,281.6
	c-37.3,35.1-84,79.2-100,94.4l-58.1-94.3C322.4,281.3,398.7,281.6,451.7,281.6z M247.4,287.5C260,308.8,293.5,362,319.3,405H174.8
	C219.5,333,239,301.3,247.4,287.5z M177.3,450h154.4l126.9,325L177.3,450z M379.9,450h270.5c-90,229-122,312.9-133.5,342.1
	L379.9,450z M572.5,776.2L698.1,450h153.6L572.5,776.2z"/>
</svg>
